<?xml version="1.0" encoding="UTF-8"?>
<svg width="640" height="160" version="1.1" viewBox="0 0 169.33 42.333" xmlns="http://www.w3.org/2000/svg" xmlns:cc="http://creativecommons.org/ns#" xmlns:rdf="http://www.w3.org/1999/02/22-rdf-syntax-ns#">
 <g transform="scale(1.1884 .84146)" fill="#fff" stroke-width="1.9165" aria-label="netto">
  <path d="m31.176 6.4682q3.5936 0 6.109 2.5874 2.5155 2.5155 2.5155 6.109v35.145h-4.7435v-35.145q0-1.5812-1.1499-2.7311t-2.7311-1.1499h-0.21561q-1.653 0-2.803 1.1499-1.0781 1.1499-1.0781 2.7311v35.145h-4.8154v-35.145q0-3.5936 2.5155-6.109 2.5874-2.5874 6.1809-2.5874z"/>
  <path d="m55.612 34.714h-7.9777v6.8996q0 1.653 1.0781 2.803 1.1499 1.0781 2.803 1.0781h0.21561q1.5093 0 2.5874-1.0062 1.1499-1.0781 1.2937-2.6592h4.7435q-0.07187 3.5217-2.5874 6.0372-2.5155 2.4436-6.0372 2.4436h-0.21561q-3.5936 0-6.1809-2.5155-2.5155-2.5874-2.5155-6.1809v-26.449q0-3.5936 2.5155-6.109 2.5874-2.5874 6.1809-2.5874h0.21561q3.5936 0 6.109 2.5874 2.5155 2.5155 2.5155 6.109v19.549zm-7.9777-19.549v14.805h7.9777v-14.805q0-1.5812-1.1499-2.7311t-2.7311-1.1499h-0.21561q-1.653 0-2.803 1.1499-1.0781 1.1499-1.0781 2.7311z"/>
  <path d="m80.766 11.284h-12.721v30.401q0 1.5812 1.0781 2.7311 1.1499 1.1499 2.803 1.1499h0.21561q1.5812 0 2.7311-1.1499t1.1499-2.7311v-11.715h4.7435v11.715q0 3.5936-2.5155 6.109t-6.109 2.5155h-0.21561q-2.0843 0-3.881-0.86245-2.228-1.0781-3.5217-3.1623t-1.2937-4.5997v-41.685h4.8154v6.5403h12.721z"/>
  <path d="m100.6 11.284h-12.721v30.401q0 1.5812 1.0781 2.7311 1.1499 1.1499 2.803 1.1499h0.21561q1.5812 0 2.7311-1.1499t1.1499-2.7311v-11.715h4.7435v11.715q0 3.5936-2.5155 6.109-2.5155 2.5155-6.109 2.5155h-0.21561q-2.0843 0-3.881-0.86245-2.228-1.0781-3.5217-3.1623t-1.2937-4.5997v-41.685h4.8154v6.5403h12.721z"/>
  <path d="m111.6 6.4682q3.5936 0 6.109 2.5874 2.5155 2.5155 2.5155 6.109v26.377q0 3.5936-2.5874 6.1809-2.5155 2.5874-6.1809 2.5874-3.5936 0-6.1809-2.5874-2.5874-2.5874-2.5874-6.1809v-26.377q0-3.5936 2.5155-6.109 2.5874-2.5874 6.1809-2.5874zm3.881 35.073v-26.377q0-1.5812-1.1499-2.7311t-2.7311-1.1499h-0.21561q-1.653 0-2.803 1.1499-1.0781 1.1499-1.0781 2.7311v26.377q0 1.653 1.1499 2.803t2.803 1.1499 2.803-1.1499q1.2218-1.1499 1.2218-2.803z"/>
 </g>
</svg>
